<mxfile host="app.diagrams.net" modified="2023-12-21T14:44:31.232Z" agent="Mozilla/5.0 (Macintosh; Intel Mac OS X 10_15_7) AppleWebKit/605.1.15 (KHTML, like Gecko) Version/17.0 Safari/605.1.15" etag="M_WnPhmeZdgQuL4ZPcp0" version="22.1.11" type="github">
  <diagram name="Page-1" id="7igvs6gEivPfTOj5GeFv">
    <mxGraphModel dx="1327" dy="886" grid="1" gridSize="10" guides="1" tooltips="1" connect="1" arrows="1" fold="1" page="1" pageScale="1" pageWidth="827" pageHeight="1169" math="0" shadow="0">
      <root>
        <mxCell id="0" />
        <mxCell id="1" parent="0" />
        <mxCell id="Orsz5sGhs1cldK6UFUGG-1" value="Databases" style="swimlane;horizontal=0;whiteSpace=wrap;html=1;fontFamily=Times New Roman;" parent="1" vertex="1">
          <mxGeometry x="50" y="180" width="200" height="460" as="geometry" />
        </mxCell>
        <mxCell id="Orsz5sGhs1cldK6UFUGG-3" value="Yahoo Finance" style="shape=cylinder3;whiteSpace=wrap;html=1;boundedLbl=1;backgroundOutline=1;size=15;fontFamily=Times New Roman;" parent="Orsz5sGhs1cldK6UFUGG-1" vertex="1">
          <mxGeometry x="70" y="40" width="60" height="80" as="geometry" />
        </mxCell>
        <mxCell id="Orsz5sGhs1cldK6UFUGG-5" value="Kantar BrandZ" style="shape=cylinder3;whiteSpace=wrap;html=1;boundedLbl=1;backgroundOutline=1;size=15;fontFamily=Times New Roman;" parent="Orsz5sGhs1cldK6UFUGG-1" vertex="1">
          <mxGeometry x="70" y="170" width="60" height="80" as="geometry" />
        </mxCell>
        <mxCell id="ZQCkKx4SF7BVx3PdPr3Z-1" value="Federal Statistical Office" style="shape=cylinder3;whiteSpace=wrap;html=1;boundedLbl=1;backgroundOutline=1;size=15;fontFamily=Times New Roman;" parent="Orsz5sGhs1cldK6UFUGG-1" vertex="1">
          <mxGeometry x="70" y="300" width="60" height="80" as="geometry" />
        </mxCell>
        <mxCell id="ZQCkKx4SF7BVx3PdPr3Z-42" value="Report" style="text;html=1;strokeColor=none;fillColor=none;align=center;verticalAlign=middle;whiteSpace=wrap;rounded=0;fontFamily=Times New Roman;" parent="Orsz5sGhs1cldK6UFUGG-1" vertex="1">
          <mxGeometry x="52.5" y="250" width="95" height="20" as="geometry" />
        </mxCell>
        <mxCell id="ZQCkKx4SF7BVx3PdPr3Z-43" value="Yahoo DB" style="text;html=1;strokeColor=none;fillColor=none;align=center;verticalAlign=middle;whiteSpace=wrap;rounded=0;fontFamily=Times New Roman;" parent="Orsz5sGhs1cldK6UFUGG-1" vertex="1">
          <mxGeometry x="52.5" y="120" width="95" height="20" as="geometry" />
        </mxCell>
        <mxCell id="ZQCkKx4SF7BVx3PdPr3Z-44" value="DB" style="text;html=1;strokeColor=none;fillColor=none;align=center;verticalAlign=middle;whiteSpace=wrap;rounded=0;fontFamily=Times New Roman;" parent="Orsz5sGhs1cldK6UFUGG-1" vertex="1">
          <mxGeometry x="52.5" y="380" width="95" height="20" as="geometry" />
        </mxCell>
        <mxCell id="Orsz5sGhs1cldK6UFUGG-7" value="Extraction" style="swimlane;horizontal=0;whiteSpace=wrap;html=1;fontFamily=Times New Roman;" parent="1" vertex="1">
          <mxGeometry x="270" y="180" width="200" height="460" as="geometry" />
        </mxCell>
        <mxCell id="ZQCkKx4SF7BVx3PdPr3Z-23" value="Stock Information" style="rounded=1;whiteSpace=wrap;html=1;fontFamily=Times New Roman;" parent="Orsz5sGhs1cldK6UFUGG-7" vertex="1">
          <mxGeometry x="50" y="10" width="130" height="40" as="geometry" />
        </mxCell>
        <mxCell id="nJk6D_cvxKh7aoFhawJc-9" style="edgeStyle=orthogonalEdgeStyle;rounded=0;orthogonalLoop=1;jettySize=auto;html=1;exitX=1;exitY=0.5;exitDx=0;exitDy=0;" edge="1" parent="Orsz5sGhs1cldK6UFUGG-7" source="ZQCkKx4SF7BVx3PdPr3Z-24">
          <mxGeometry relative="1" as="geometry">
            <mxPoint x="430" y="290" as="targetPoint" />
            <Array as="points">
              <mxPoint x="300" y="210" />
              <mxPoint x="300" y="290" />
            </Array>
          </mxGeometry>
        </mxCell>
        <mxCell id="ZQCkKx4SF7BVx3PdPr3Z-24" value="EBIT &amp;amp; TR" style="rounded=1;whiteSpace=wrap;html=1;fontFamily=Times New Roman;" parent="Orsz5sGhs1cldK6UFUGG-7" vertex="1">
          <mxGeometry x="50" y="190" width="130" height="40" as="geometry" />
        </mxCell>
        <mxCell id="ZQCkKx4SF7BVx3PdPr3Z-27" value="Top Brands 2019" style="rounded=1;whiteSpace=wrap;html=1;fontFamily=Times New Roman;" parent="Orsz5sGhs1cldK6UFUGG-7" vertex="1">
          <mxGeometry x="50" y="280" width="130" height="40" as="geometry" />
        </mxCell>
        <mxCell id="ZQCkKx4SF7BVx3PdPr3Z-28" value="Consumer Price Index" style="rounded=1;whiteSpace=wrap;html=1;fontFamily=Times New Roman;" parent="Orsz5sGhs1cldK6UFUGG-7" vertex="1">
          <mxGeometry x="50" y="380" width="130" height="36" as="geometry" />
        </mxCell>
        <mxCell id="ZQCkKx4SF7BVx3PdPr3Z-34" value="" style="shape=image;html=1;verticalAlign=top;verticalLabelPosition=bottom;labelBackgroundColor=#ffffff;imageAspect=0;aspect=fixed;image=https://cdn0.iconfinder.com/data/icons/phosphor-thin-vol-3/256/microsoft-excel-logo-thin-128.png;fontFamily=Times New Roman;" parent="Orsz5sGhs1cldK6UFUGG-7" vertex="1">
          <mxGeometry x="50" y="320" width="40" height="40" as="geometry" />
        </mxCell>
        <mxCell id="ZQCkKx4SF7BVx3PdPr3Z-35" value="" style="shape=image;html=1;verticalAlign=top;verticalLabelPosition=bottom;labelBackgroundColor=#ffffff;imageAspect=0;aspect=fixed;image=https://cdn0.iconfinder.com/data/icons/phosphor-thin-vol-3/256/microsoft-excel-logo-thin-128.png;fontFamily=Times New Roman;" parent="Orsz5sGhs1cldK6UFUGG-7" vertex="1">
          <mxGeometry x="50" y="416" width="40" height="40" as="geometry" />
        </mxCell>
        <mxCell id="ZQCkKx4SF7BVx3PdPr3Z-36" value="" style="shape=image;html=1;verticalAlign=top;verticalLabelPosition=bottom;labelBackgroundColor=#ffffff;imageAspect=0;aspect=fixed;image=https://cdn0.iconfinder.com/data/icons/phosphor-thin-vol-3/256/microsoft-excel-logo-thin-128.png;fontFamily=Times New Roman;" parent="Orsz5sGhs1cldK6UFUGG-7" vertex="1">
          <mxGeometry x="50" y="230" width="40" height="40" as="geometry" />
        </mxCell>
        <mxCell id="ZQCkKx4SF7BVx3PdPr3Z-37" value="" style="shape=image;html=1;verticalAlign=top;verticalLabelPosition=bottom;labelBackgroundColor=#ffffff;imageAspect=0;aspect=fixed;image=https://cdn0.iconfinder.com/data/icons/phosphor-thin-vol-3/256/microsoft-excel-logo-thin-128.png;fontFamily=Times New Roman;" parent="Orsz5sGhs1cldK6UFUGG-7" vertex="1">
          <mxGeometry x="50" y="50" width="40" height="40" as="geometry" />
        </mxCell>
        <mxCell id="ZQCkKx4SF7BVx3PdPr3Z-38" value="Direct filtered extraction" style="text;html=1;strokeColor=none;fillColor=none;align=center;verticalAlign=middle;whiteSpace=wrap;rounded=0;fontFamily=Times New Roman;" parent="Orsz5sGhs1cldK6UFUGG-7" vertex="1">
          <mxGeometry x="85" y="50" width="95" height="40" as="geometry" />
        </mxCell>
        <mxCell id="ZQCkKx4SF7BVx3PdPr3Z-39" value="&amp;nbsp;Manual data entry" style="text;html=1;strokeColor=none;fillColor=none;align=center;verticalAlign=middle;whiteSpace=wrap;rounded=0;fontFamily=Times New Roman;" parent="Orsz5sGhs1cldK6UFUGG-7" vertex="1">
          <mxGeometry x="85" y="230" width="95" height="40" as="geometry" />
        </mxCell>
        <mxCell id="ZQCkKx4SF7BVx3PdPr3Z-40" value="&amp;nbsp;Manual data entry" style="text;html=1;strokeColor=none;fillColor=none;align=center;verticalAlign=middle;whiteSpace=wrap;rounded=0;fontFamily=Times New Roman;" parent="Orsz5sGhs1cldK6UFUGG-7" vertex="1">
          <mxGeometry x="85" y="320" width="95" height="40" as="geometry" />
        </mxCell>
        <mxCell id="ZQCkKx4SF7BVx3PdPr3Z-41" value="Direct filtered extraction" style="text;html=1;strokeColor=none;fillColor=none;align=center;verticalAlign=middle;whiteSpace=wrap;rounded=0;fontFamily=Times New Roman;" parent="Orsz5sGhs1cldK6UFUGG-7" vertex="1">
          <mxGeometry x="85" y="414" width="95" height="40" as="geometry" />
        </mxCell>
        <mxCell id="nJk6D_cvxKh7aoFhawJc-2" value="Sector &amp;amp; Industry" style="rounded=1;whiteSpace=wrap;html=1;fontFamily=Times New Roman;" vertex="1" parent="Orsz5sGhs1cldK6UFUGG-7">
          <mxGeometry x="50" y="100" width="130" height="40" as="geometry" />
        </mxCell>
        <mxCell id="nJk6D_cvxKh7aoFhawJc-3" value="" style="shape=image;html=1;verticalAlign=top;verticalLabelPosition=bottom;labelBackgroundColor=#ffffff;imageAspect=0;aspect=fixed;image=https://cdn0.iconfinder.com/data/icons/phosphor-thin-vol-3/256/microsoft-excel-logo-thin-128.png;fontFamily=Times New Roman;" vertex="1" parent="Orsz5sGhs1cldK6UFUGG-7">
          <mxGeometry x="50" y="140" width="40" height="40" as="geometry" />
        </mxCell>
        <mxCell id="nJk6D_cvxKh7aoFhawJc-4" value="&amp;nbsp;Manual data entry" style="text;html=1;strokeColor=none;fillColor=none;align=center;verticalAlign=middle;whiteSpace=wrap;rounded=0;fontFamily=Times New Roman;" vertex="1" parent="Orsz5sGhs1cldK6UFUGG-7">
          <mxGeometry x="85" y="140" width="95" height="40" as="geometry" />
        </mxCell>
        <mxCell id="ZQCkKx4SF7BVx3PdPr3Z-3" value="Transform" style="swimlane;horizontal=0;whiteSpace=wrap;html=1;fontFamily=Times New Roman;" parent="1" vertex="1">
          <mxGeometry x="490" y="180" width="350" height="460" as="geometry" />
        </mxCell>
        <mxCell id="Dk1eDjtupp30QDpW1Qba-13" style="edgeStyle=orthogonalEdgeStyle;rounded=0;orthogonalLoop=1;jettySize=auto;html=1;exitX=1;exitY=0.5;exitDx=0;exitDy=0;entryX=0;entryY=0.5;entryDx=0;entryDy=0;fontFamily=Times New Roman;" parent="ZQCkKx4SF7BVx3PdPr3Z-3" source="ZQCkKx4SF7BVx3PdPr3Z-16" target="ZQCkKx4SF7BVx3PdPr3Z-45" edge="1">
          <mxGeometry relative="1" as="geometry">
            <mxPoint x="210" y="210" as="targetPoint" />
            <Array as="points">
              <mxPoint x="190" y="50" />
              <mxPoint x="190" y="290" />
            </Array>
          </mxGeometry>
        </mxCell>
        <mxCell id="ZQCkKx4SF7BVx3PdPr3Z-16" value="Time aggregation&lt;br&gt;(daily to monthly)" style="rounded=0;whiteSpace=wrap;html=1;fontFamily=Times New Roman;" parent="ZQCkKx4SF7BVx3PdPr3Z-3" vertex="1">
          <mxGeometry x="50" y="20" width="120" height="60" as="geometry" />
        </mxCell>
        <mxCell id="Dk1eDjtupp30QDpW1Qba-12" style="edgeStyle=orthogonalEdgeStyle;rounded=0;orthogonalLoop=1;jettySize=auto;html=1;exitX=1;exitY=0.5;exitDx=0;exitDy=0;entryX=0;entryY=0.5;entryDx=0;entryDy=0;fontFamily=Times New Roman;" parent="ZQCkKx4SF7BVx3PdPr3Z-3" source="ZQCkKx4SF7BVx3PdPr3Z-17" target="ZQCkKx4SF7BVx3PdPr3Z-45" edge="1">
          <mxGeometry relative="1" as="geometry" />
        </mxCell>
        <mxCell id="ZQCkKx4SF7BVx3PdPr3Z-17" value="Sectors aggregated" style="rounded=0;whiteSpace=wrap;html=1;fontFamily=Times New Roman;" parent="ZQCkKx4SF7BVx3PdPr3Z-3" vertex="1">
          <mxGeometry x="50" y="110" width="120" height="60" as="geometry" />
        </mxCell>
        <mxCell id="ZQCkKx4SF7BVx3PdPr3Z-45" value="Merged Data" style="rounded=0;whiteSpace=wrap;html=1;fontFamily=Times New Roman;" parent="ZQCkKx4SF7BVx3PdPr3Z-3" vertex="1">
          <mxGeometry x="210" y="230" width="120" height="120" as="geometry" />
        </mxCell>
        <mxCell id="ZQCkKx4SF7BVx3PdPr3Z-10" value="Loading" style="swimlane;horizontal=0;whiteSpace=wrap;html=1;fontFamily=Times New Roman;" parent="1" vertex="1">
          <mxGeometry x="860" y="180" width="200" height="460" as="geometry" />
        </mxCell>
        <mxCell id="ZQCkKx4SF7BVx3PdPr3Z-49" value="Model Specification 1" style="rounded=1;whiteSpace=wrap;html=1;fontFamily=Times New Roman;" parent="ZQCkKx4SF7BVx3PdPr3Z-10" vertex="1">
          <mxGeometry x="60" y="20" width="130" height="60" as="geometry" />
        </mxCell>
        <mxCell id="ZQCkKx4SF7BVx3PdPr3Z-50" value="Model Specification 2" style="rounded=1;whiteSpace=wrap;html=1;fontFamily=Times New Roman;" parent="ZQCkKx4SF7BVx3PdPr3Z-10" vertex="1">
          <mxGeometry x="60" y="180" width="130" height="60" as="geometry" />
        </mxCell>
        <mxCell id="ZQCkKx4SF7BVx3PdPr3Z-51" value="Model Specification 3" style="rounded=1;whiteSpace=wrap;html=1;fontFamily=Times New Roman;" parent="ZQCkKx4SF7BVx3PdPr3Z-10" vertex="1">
          <mxGeometry x="60" y="305" width="130" height="60" as="geometry" />
        </mxCell>
        <mxCell id="ZQCkKx4SF7BVx3PdPr3Z-46" value="Python" style="rounded=0;whiteSpace=wrap;html=1;fontFamily=Times New Roman;" parent="ZQCkKx4SF7BVx3PdPr3Z-10" vertex="1">
          <mxGeometry x="-340" y="440" width="320" height="20" as="geometry" />
        </mxCell>
        <mxCell id="ZQCkKx4SF7BVx3PdPr3Z-47" value="R" style="rounded=0;whiteSpace=wrap;html=1;fontFamily=Times New Roman;" parent="ZQCkKx4SF7BVx3PdPr3Z-10" vertex="1">
          <mxGeometry x="30" y="440" width="170" height="20" as="geometry" />
        </mxCell>
        <mxCell id="ZQCkKx4SF7BVx3PdPr3Z-20" value="ETL Pipeline" style="html=1;shadow=0;dashed=0;align=center;verticalAlign=middle;shape=mxgraph.arrows2.arrow;dy=0.6;dx=40;notch=0;fontFamily=Times New Roman;" parent="1" vertex="1">
          <mxGeometry x="270" y="650" width="790" height="50" as="geometry" />
        </mxCell>
        <mxCell id="ZQCkKx4SF7BVx3PdPr3Z-21" value="Sources" style="html=1;shadow=0;dashed=0;align=center;verticalAlign=middle;shape=mxgraph.arrows2.arrow;dy=0;dx=10;notch=10;fontFamily=Times New Roman;" parent="1" vertex="1">
          <mxGeometry x="50" y="660" width="200" height="30" as="geometry" />
        </mxCell>
        <mxCell id="ZQCkKx4SF7BVx3PdPr3Z-57" value="" style="rounded=0;whiteSpace=wrap;html=1;fontFamily=Times New Roman;" parent="1" vertex="1">
          <mxGeometry x="1080" y="150" width="20" height="550" as="geometry" />
        </mxCell>
        <mxCell id="Dk1eDjtupp30QDpW1Qba-1" value="1" style="rounded=0;whiteSpace=wrap;html=1;fontFamily=Times New Roman;" parent="1" vertex="1">
          <mxGeometry x="50" y="150" width="200" height="20" as="geometry" />
        </mxCell>
        <mxCell id="Dk1eDjtupp30QDpW1Qba-2" value="2" style="rounded=0;whiteSpace=wrap;html=1;fontFamily=Times New Roman;" parent="1" vertex="1">
          <mxGeometry x="270" y="150" width="200" height="20" as="geometry" />
        </mxCell>
        <mxCell id="Dk1eDjtupp30QDpW1Qba-3" value="3" style="rounded=0;whiteSpace=wrap;html=1;fontFamily=Times New Roman;" parent="1" vertex="1">
          <mxGeometry x="490" y="150" width="170" height="20" as="geometry" />
        </mxCell>
        <mxCell id="Dk1eDjtupp30QDpW1Qba-4" value="5" style="rounded=0;whiteSpace=wrap;html=1;fontFamily=Times New Roman;" parent="1" vertex="1">
          <mxGeometry x="860" y="150" width="200" height="20" as="geometry" />
        </mxCell>
        <mxCell id="Dk1eDjtupp30QDpW1Qba-5" value="4" style="rounded=0;whiteSpace=wrap;html=1;fontFamily=Times New Roman;" parent="1" vertex="1">
          <mxGeometry x="680" y="150" width="160" height="20" as="geometry" />
        </mxCell>
        <mxCell id="Dk1eDjtupp30QDpW1Qba-6" style="edgeStyle=orthogonalEdgeStyle;rounded=0;orthogonalLoop=1;jettySize=auto;html=1;exitX=1;exitY=0.5;exitDx=0;exitDy=0;exitPerimeter=0;entryX=0;entryY=0.5;entryDx=0;entryDy=0;fontFamily=Times New Roman;" parent="1" source="Orsz5sGhs1cldK6UFUGG-3" target="ZQCkKx4SF7BVx3PdPr3Z-23" edge="1">
          <mxGeometry relative="1" as="geometry">
            <Array as="points">
              <mxPoint x="230" y="260" />
              <mxPoint x="230" y="210" />
            </Array>
          </mxGeometry>
        </mxCell>
        <mxCell id="Dk1eDjtupp30QDpW1Qba-7" style="edgeStyle=orthogonalEdgeStyle;rounded=0;orthogonalLoop=1;jettySize=auto;html=1;exitX=1;exitY=0.5;exitDx=0;exitDy=0;exitPerimeter=0;entryX=0;entryY=0.5;entryDx=0;entryDy=0;fontFamily=Times New Roman;" parent="1" source="Orsz5sGhs1cldK6UFUGG-3" target="ZQCkKx4SF7BVx3PdPr3Z-24" edge="1">
          <mxGeometry relative="1" as="geometry">
            <Array as="points">
              <mxPoint x="230" y="260" />
              <mxPoint x="230" y="370" />
              <mxPoint x="300" y="370" />
              <mxPoint x="300" y="390" />
            </Array>
          </mxGeometry>
        </mxCell>
        <mxCell id="Dk1eDjtupp30QDpW1Qba-8" style="edgeStyle=orthogonalEdgeStyle;rounded=0;orthogonalLoop=1;jettySize=auto;html=1;exitX=1;exitY=0.5;exitDx=0;exitDy=0;exitPerimeter=0;entryX=0;entryY=0.5;entryDx=0;entryDy=0;fontFamily=Times New Roman;" parent="1" source="Orsz5sGhs1cldK6UFUGG-5" target="ZQCkKx4SF7BVx3PdPr3Z-27" edge="1">
          <mxGeometry relative="1" as="geometry">
            <Array as="points">
              <mxPoint x="230" y="390" />
              <mxPoint x="230" y="480" />
            </Array>
          </mxGeometry>
        </mxCell>
        <mxCell id="Dk1eDjtupp30QDpW1Qba-10" style="edgeStyle=orthogonalEdgeStyle;rounded=0;orthogonalLoop=1;jettySize=auto;html=1;exitX=1;exitY=0.5;exitDx=0;exitDy=0;fontFamily=Times New Roman;" parent="1" source="ZQCkKx4SF7BVx3PdPr3Z-27" target="ZQCkKx4SF7BVx3PdPr3Z-45" edge="1">
          <mxGeometry relative="1" as="geometry">
            <Array as="points">
              <mxPoint x="570" y="480" />
              <mxPoint x="570" y="470" />
            </Array>
          </mxGeometry>
        </mxCell>
        <mxCell id="Dk1eDjtupp30QDpW1Qba-11" style="edgeStyle=orthogonalEdgeStyle;rounded=0;orthogonalLoop=1;jettySize=auto;html=1;exitX=1;exitY=0.5;exitDx=0;exitDy=0;entryX=0;entryY=0.5;entryDx=0;entryDy=0;fontFamily=Times New Roman;" parent="1" source="ZQCkKx4SF7BVx3PdPr3Z-28" target="ZQCkKx4SF7BVx3PdPr3Z-45" edge="1">
          <mxGeometry relative="1" as="geometry">
            <Array as="points">
              <mxPoint x="570" y="578" />
              <mxPoint x="570" y="470" />
            </Array>
          </mxGeometry>
        </mxCell>
        <mxCell id="Dk1eDjtupp30QDpW1Qba-14" style="edgeStyle=orthogonalEdgeStyle;rounded=0;orthogonalLoop=1;jettySize=auto;html=1;exitX=1;exitY=0.5;exitDx=0;exitDy=0;entryX=0;entryY=0.5;entryDx=0;entryDy=0;fontFamily=Times New Roman;" parent="1" source="ZQCkKx4SF7BVx3PdPr3Z-45" target="ZQCkKx4SF7BVx3PdPr3Z-49" edge="1">
          <mxGeometry relative="1" as="geometry">
            <Array as="points">
              <mxPoint x="900" y="470" />
              <mxPoint x="900" y="230" />
            </Array>
          </mxGeometry>
        </mxCell>
        <mxCell id="Dk1eDjtupp30QDpW1Qba-15" style="edgeStyle=orthogonalEdgeStyle;rounded=0;orthogonalLoop=1;jettySize=auto;html=1;exitX=1;exitY=0.5;exitDx=0;exitDy=0;entryX=0;entryY=0.5;entryDx=0;entryDy=0;fontFamily=Times New Roman;" parent="1" source="ZQCkKx4SF7BVx3PdPr3Z-45" target="ZQCkKx4SF7BVx3PdPr3Z-51" edge="1">
          <mxGeometry relative="1" as="geometry">
            <Array as="points">
              <mxPoint x="900" y="470" />
              <mxPoint x="900" y="515" />
            </Array>
          </mxGeometry>
        </mxCell>
        <mxCell id="Dk1eDjtupp30QDpW1Qba-16" style="edgeStyle=orthogonalEdgeStyle;rounded=0;orthogonalLoop=1;jettySize=auto;html=1;exitX=1;exitY=0.5;exitDx=0;exitDy=0;entryX=0;entryY=0.5;entryDx=0;entryDy=0;fontFamily=Times New Roman;" parent="1" source="ZQCkKx4SF7BVx3PdPr3Z-45" target="ZQCkKx4SF7BVx3PdPr3Z-50" edge="1">
          <mxGeometry relative="1" as="geometry">
            <Array as="points">
              <mxPoint x="900" y="470" />
              <mxPoint x="900" y="390" />
            </Array>
          </mxGeometry>
        </mxCell>
        <mxCell id="nJk6D_cvxKh7aoFhawJc-5" style="edgeStyle=orthogonalEdgeStyle;rounded=0;orthogonalLoop=1;jettySize=auto;html=1;exitX=1;exitY=0.5;exitDx=0;exitDy=0;exitPerimeter=0;entryX=0;entryY=0.5;entryDx=0;entryDy=0;" edge="1" parent="1" source="ZQCkKx4SF7BVx3PdPr3Z-1" target="ZQCkKx4SF7BVx3PdPr3Z-28">
          <mxGeometry relative="1" as="geometry">
            <Array as="points">
              <mxPoint x="230" y="520" />
              <mxPoint x="230" y="578" />
            </Array>
          </mxGeometry>
        </mxCell>
        <mxCell id="nJk6D_cvxKh7aoFhawJc-6" style="edgeStyle=orthogonalEdgeStyle;rounded=0;orthogonalLoop=1;jettySize=auto;html=1;exitX=1;exitY=0.5;exitDx=0;exitDy=0;exitPerimeter=0;entryX=0;entryY=0.5;entryDx=0;entryDy=0;" edge="1" parent="1" source="Orsz5sGhs1cldK6UFUGG-3" target="nJk6D_cvxKh7aoFhawJc-2">
          <mxGeometry relative="1" as="geometry">
            <Array as="points">
              <mxPoint x="230" y="260" />
              <mxPoint x="230" y="300" />
            </Array>
          </mxGeometry>
        </mxCell>
        <mxCell id="nJk6D_cvxKh7aoFhawJc-7" style="edgeStyle=orthogonalEdgeStyle;rounded=0;orthogonalLoop=1;jettySize=auto;html=1;exitX=1;exitY=0.5;exitDx=0;exitDy=0;" edge="1" parent="1" source="nJk6D_cvxKh7aoFhawJc-2" target="ZQCkKx4SF7BVx3PdPr3Z-17">
          <mxGeometry relative="1" as="geometry">
            <Array as="points">
              <mxPoint x="520" y="300" />
              <mxPoint x="520" y="320" />
            </Array>
          </mxGeometry>
        </mxCell>
        <mxCell id="nJk6D_cvxKh7aoFhawJc-8" style="edgeStyle=orthogonalEdgeStyle;rounded=0;orthogonalLoop=1;jettySize=auto;html=1;exitX=1;exitY=0.5;exitDx=0;exitDy=0;entryX=0;entryY=0.5;entryDx=0;entryDy=0;" edge="1" parent="1" source="ZQCkKx4SF7BVx3PdPr3Z-23" target="ZQCkKx4SF7BVx3PdPr3Z-16">
          <mxGeometry relative="1" as="geometry">
            <Array as="points">
              <mxPoint x="520" y="210" />
              <mxPoint x="520" y="230" />
            </Array>
          </mxGeometry>
        </mxCell>
      </root>
    </mxGraphModel>
  </diagram>
</mxfile>
